# xmcd
#
# Track frame offsets: 
#        150
#        14736
#        32063
#        46013
#        64944
#        80223
#        93315
#        112387
#        134962
#        150784
#        171467
#        186323
#        202925
#
# Disc length: 2931 seconds
#
# Revision: 0
# Processed by: cddbd v1.5.1PL0 Copyright (c) Steve Scherf et al.
# Submitted via: ExactAudioCopy v0.95a5
#
DISCID=bc0b710d
DTITLE=Ten Mile Drive - Ten Mile Drive
DYEAR=2004
DGENRE=Bluegrass
TTITLE0=Hit Me
TTITLE1=Unconditional
TTITLE2=Superhero
TTITLE3=Angel
TTITLE4=Poor Man Blues
TTITLE5=Drive Me Crazy
TTITLE6=End Of The Day
TTITLE7=Does She Know
TTITLE8=Are You Listening
TTITLE9=Broken Chains
TTITLE10=The Night That Love Was Born
TTITLE11=Maybe
TTITLE12=Walking Along
EXTD=
EXTT0=
EXTT1=
EXTT2=
EXTT3=
EXTT4=
EXTT5=
EXTT6=
EXTT7=
EXTT8=
EXTT9=
EXTT10=
EXTT11=
EXTT12=
PLAYORDER=
